<svg xmlns="http://www.w3.org/2000/svg" viewBox="0 0 535.93 438.19"><defs><style>.cls-1{fill:#cc5552;}.cls-2,.cls-5,.cls-6{fill:#ffb7a4;}.cls-2{opacity:0.5;}.cls-3{fill:#7c3333;opacity:0.3;}.cls-4{fill:#db5f56;}.cls-6{opacity:0.2;}</style></defs><title>Ресурс 3</title><g id="Слой_2" data-name="Слой 2"><g id="Layer_1" data-name="Layer 1"><path class="cls-1" d="M535.93,215.88c-19.66,17.79-32.51,39.4-59.84,50.49-13.54,5.49-26.89,3.34-41.47,5.14-20.06,2.48-33.1,14.82-41.88,29.39-13.71,22.74-30,42.12-64,40-34.49-2.16-61,3.41-76.16,31.71-8.66,16.13-18.77,35-42.24,37.46-9.18,1-57.26,5.11-77.55,23.38L64.5,346.68c.12-.94,41.7-38.89,56-43.94,15.42-5.44,31.6-3.68,47.35-6.46,22.56-4,36.17-12.57,49.76-28,13.35-15.17,20.94-34.14,46.61-37.16,20.82-2.45,39.29,1.94,58.77-8.06,18-9.23,22.64-25.92,36.35-38.15,15.87-14.14,39.77-14.28,61.65-16.83s56.5-23.09,72.63-35.17C503.42,163,525.49,191.46,535.93,215.88Z"/><path class="cls-2" d="M393.08,207.76c3.19-.58,6.18,0,9.79-1.15,4.87-1.6,9.46-3.74,14.28-5.38,6.8-2.32,14.07-3,20.75-5.61,6.06-2.34,10.92-6.66,16.33-10.06,5-3.12,8-1.69,13.18-5.07,6.6-4.29,12.19-9.27,19.37-12.7,5.95-2.84,12.31-5.73,18.55-8.87q-1.85-3.71-3.55-7.47c-5.45,3.61-10.32,7.43-13.2,9.15-5.75,3.44-11,8.22-17.09,10.85-5.17,2.25-5.39,1.5-7.86-2.54-9.7,3.47-17.91,12.45-27.32,17.28-5.1,2.62-10.61,5.4-16.24,6.84-2.4.62-4.18,1.6-6.63.49-1.44-.64-1-2.88-1.91-3.29-5.91-2.66-18,1.07-21.2,6.43-2.32,3.88-2.08,6.73-6,10S376,213,370.67,212.28c.93-3.18,5.14-5.44,6.15-8.73-8.46-1.51-18.92,9.68-24.78,14.68-6.23,5.32-12.17,10.57-18.38,15.93-19.35,16.7-44.7,9.81-67,18-25.79,9.48-38.11,33.56-59.89,48.52-16.3,11.2-35.35,7.54-53.58,10.84-20.56,3.72-36.44,14.93-53.73,25.33-7.61,4.58-23.11,10.32-28.14,19L82.25,369.7c3.14-2.46,6.27-4.92,9.49-7.18,21.48-15,47.2-35.06,74.13-36.24,20.51-.9,36.76-12,52.89-24,8.68-6.46,18.25-11.3,27.31-17.13,6.35-4.09,11.64-9.6,17.89-13.85,11.06-7.53,23.74-10,36.61-12.95,14.15-3.21,25.76-2,38.29-11.11,10.42-7.6,19.83-19.94,32.79-14.94,6.73,2.6,11.87,2.1,19-.07,15.23-4.62,30.09-11.6,44.84-17.63,3.74-1.53,37.27-11.81,33.35-19.52-2.16-4.25-26.64,8.23-30.27,9.46-15.23,5.16-29.61,10.85-44.45,17.16-4.9,2.08-14.45,4.79-13.12-3.06C381.94,213.37,388.46,208.61,393.08,207.76Z"/><path class="cls-2" d="M522.16,189.3a22.79,22.79,0,0,0-2.1,1.47c-8.19,6.9-14.1,15.83-22.89,22.18-10.77,7.79-21.33,14.42-34.05,18.22-22.56,6.75-40.67,24.13-64.4,27.83-8.32,1.29-18.8,2.46-26.2,6.66-6.88,3.91-7.21,8.17-7.65,15.16s-6.51,16.22-14.62,15.69c-5.22-.34-7-5.52-10.88-8-8.37-5.34-33.64-2.64-41,3.79-10.47,9.13,22.74,3.11,25.33,3.15,6.57.09,12,4.38,10,11.5-2,6.85-11.84,11.16-18.31,11-6.78-.18-11.76-5.6-17.9-5.76-6.37-.17-12.8,4.2-19.74,4.18-17.52,0-32.71,3-45.6,16.2-4.77,4.88-6.32,10.9-12.18,15.18-6.34,4.63-12.35,5.09-19.17,7.26s-10.59,7.9-18.18,8.39c-5.37.35-8.71-.32-13.18,3.11-9.84,7.55-11.45,23.89-22.47,28.64-4.84,2.09-9.31,2.5-13.62-.79s-5.47-5.16-10.45-.68c-4,3.55-6.76,10.39-8.48,15.31-.16.45-.29.91-.4,1.37l8,10.11a9.59,9.59,0,0,1,3-1.8c5-1.31,10.71.45,15.56-2.08,7.49-3.9,13.93-13.29,19.48-19.39,4.62-5.07,5.15-5.93,12-5.58,5.95.3,12,.16,16.61-4.17s3.12-8.29,5.45-13c1.85-3.72,8.2-7.24,11.92-8.88,9.8-4.32,19.15,1.88,29.12-.64,3.93-1,12.72-3.07,5.89-6.67-3.5-1.85-10.2,1.36-10-4.81.28-7.48,18.06-17.62,24-20.8a54.12,54.12,0,0,1,26.14-6.91c11.86,0,23.46,1.87,35.13,0a37.15,37.15,0,0,0,15.52-6.66c4.79-3.36,9.92-5.77,10.49-10.58s-.43-6.81,5.87-7.31c4.39-.35,8,1.61,12.53.65,4.77-1,10.91-4.4,12.44-9.13,1.69-5.23-.77-8.44,3.78-12.95,5-4.92,12.06-7.7,18.42-10.45,9-3.89,17.76-8.64,26.93-11.9,17.56-6.24,34.73-12.42,51.1-21.54,14.68-8.19,27.54-19.35,39.41-30.83a129.33,129.33,0,0,1,10.61-8.76c.53-.42,1.24-.89,2-1.41Q523.8,192.11,522.16,189.3Z"/><path class="cls-3" d="M217.64,268.07c-13.59,15.45-27.21,24-49.76,28-15.74,2.77-31.92,1-47.35,6.46-14.32,5-55.91,43-56,43.94l68.32,86.76c20.28-18.27,68.36-22.41,77.55-23.38,7.76-.82-2.58-29.53,0-39.94,3.42-13.54,19.08-29.27,19.34-43.38.19-10.15-1.16-32.1,1-38.15,10.45-28.75,17.13-51.6,16.39-52.06C234.15,243.75,227.44,256.93,217.64,268.07Z"/><path class="cls-4" d="M289.86,0C268.67,15.94,245,24.47,229,49.21,221,61.46,220.6,75,216.08,89c-6.23,19.23-20.81,29.7-36.78,35.57-24.93,9.16-47,21.48-51.37,55.26-4.4,34.28-14.87,59.22-45.54,68.79C64.91,254,44.5,260.4,37.63,283,34.93,291.81,21.78,338.24,0,354.7l72.27,83.49c.95.06,46.07-33.6,53.74-46.71,8.26-14.12,9.59-30.34,15.29-45.27,8.17-21.4,19.19-33.14,36.93-43.57,17.42-10.24,37.48-14.11,45.3-38.74,6.34-20,5.53-38.95,19-56.18,12.46-15.9,29.74-17.33,44.33-28.48,16.89-12.91,21.54-36.36,28.19-57.36s33.35-51.11,48.27-64.67C335.63,41.92,311.87,14.87,289.86,0Z"/><path class="cls-5" d="M304.37,11.35c-8.86,4.61-15.91,14.26-24.44,19.49-11.73,7.2-24.74,8.65-32.38,20.78-7.24,11.49-8.53,25.21-11.12,38.29-2.65,13.4-9.59,20.41-20.91,27.57-6.58,4.16-14.72,7.53-20.26,13.07-4,4-5,9.46-7.84,14.23-9.66,16.44-28.92,21.68-42.33,33.85-10.43,9.47-10.32,17.9-11.47,31a49.67,49.67,0,0,1-14.78,30.82c-6.36,6-25.17,16.53-24.36,26.47,3.89-.47,8.41-4.57,11.86-6.14-9.22,29.8-50.68,30.12-67.88,52.82-7.15,9.44-9.28,21.56-14.6,31.89-1.88,3.65-8.3,17.62-12.92,22.64l14.83,17.13c.48-1.25.92-2.42,1.32-3.43,4.33-10.93,10-24,20.78-29.8,8.23-4.41,17.57-5.11,25.07-11.3,6.19-5.11,11.67-11.2,17.81-16.37,3.8-3.2,8.16-6.67,11-10.9,2.62-3.93,4.33-8.78-2.64-7.83-4.48.61-8.14,5.2-11.47,7.74s-19.82,19.5-19.91,7.45c-.07-9.28,16.73-18.09,22.38-23.4a77,77,0,0,1,16.43-12.25c3.71-2,7.86-4.11,10.75-7.17,6.33-6.73,8.91-16.21,11.63-24.59,3.1-9.58,11.2-13,15.78-21.42,2.84-5.21,1.22-8.31.9-13.6-.39-6.59,3-11.3,7.05-16.3,10.89-13.58,26.74-21.74,37.41-34.91,7.39-9.12,13.82-18.22,24-24.16,11.62-6.76,18.48-16.45,24.45-28.74,6.6-13.58,14.72-27.12,17.36-42.23,1.81-10.33,10.47-14.75,18.82-20.76,9.49-6.84,18.63-14.23,27.71-21.56,3.18-2.57,8.26-6.33,11.29-10.3C310.55,16.63,307.44,13.94,304.37,11.35Z"/><path class="cls-5" d="M308.12,57.28c-9.18,6.24-19,7.38-24.17,18.8-5,11-2.07,22.27-10.7,32-6.29,7.09-16,13.3-20.37,21.94-2.16,4.25-1.81,8.8-3.27,13.09-1.34,3.95-4.06,7.71-6.68,10.95-2.33,2.89-21.07,21.65-19.86,13.18,1.12-7.79,17.72-11.5,17.66-19.46-.08-11.23-17.3,11.13-19.35,13.46a129.28,129.28,0,0,1-20.41,19c-3.67,2.73-8.85,6.28-8.86,11.37s5.33,8,5.25,13.07c-.07,4.36-2.45,9.65-4.75,13.18-5.13,7.88-11,17.07-17.09,24.06-7.2,8.32-15.28-3.27-21.19,5.62-2.16,3.25-2.16,7.84-3.91,11.61-2.3,5-6,8.67-9.53,12.67-7.14,8-12.19,14.49-14.23,24.84-2.4,12.19-.73,23.1-6.67,34.86C111.22,348.91,95.2,358.88,77,364c-13,3.7-24.16,10.88-29,24.17-2.18,5.93-2.07,12.84-1.85,19.5l10,11.58c0-5.44-.95-11.05,2-16.07,8.8-14.83,27.72-24.05,41.93-32.91,11.77-7.34,19.19-19.71,27.35-30.59a55.38,55.38,0,0,0,9.76-21.66c2.34-11.15,5.52-21.64,13.51-30.6,5.93-6.65,16.67-11.08,18.38-20,.75-3.87.18-9.34,3.25-12.41s8.43-3,11.82-6c6.77-6.07,12-13.94,17.89-20.74,8-9.18,5.4-14.77,3.53-25.11-1.31-7.22,2-17.22,8.61-21.31,7.29-4.5,17.18-1.87,25-6.78,9.78-6.17,11.38-19,15.82-28.87,1.82-4,3.69-8.5,7.14-11.37s7.08-2.95,10-6.4c5.93-7.08,9.13-19,10.95-27.7,1.53-7.33,3.6-18.37,7.85-24.56s12.89-10.13,19.35-14c2.46-1.46,7.83-4.21,6.78-8C315.48,48.7,310.58,55.61,308.12,57.28Z"/><path class="cls-6" d="M264.76,170.27c-12.68-1.69-25.29,0-38.17-.52-4.81-.19-14.69-.16-18.81-2.48-4.85-2.74-2-4.59-.56-8.92-11.31-.69-18.18-.83-27.11-7.9-7.09-5.61-14.78-7.29-23.52-5.78l-4.18,2.61c-8.31-.21-14.46,13.67-5.76,18.7,4.55,2.63,10.51,1.43,15.58,1.69a104.45,104.45,0,0,1,15.67,2.48c10.37,2.12,19.59,7.35,29.51,11,8.29,3,18.91,8.5,27.7,8.48,8.4,0,20-1.91,27.58-5.61C271,179.92,278.71,172.14,264.76,170.27Z"/><path class="cls-6" d="M317.68,69.94c-10.05-11.3-33.5-12.51-34.62-30.35-.36-5.79,2.29-11.87-1.44-16.84-3.61-4.82-8.57-4.52-13.2-1.95l-4.18,2.61c-8.79,2.72-22.67,21.46-10.07,27.71,5.45,2.7,12.63,2.09,18.44,4,5.49,1.84,10.07,4.92,14.63,8.36,7.91,6,15,13.3,23.11,18.93,3.87,2.7,7.67,4.08,10.73-1C323.88,76.79,320.77,73.42,317.68,69.94Z"/><path class="cls-6" d="M144.56,294.78c-7.89-2.34-21.21,2.26-26.16-3.78-3.12-3.81-4.18-5.93-9.89-8-5-1.79-10-2-15.17-2.47-10.12-1-16.1-.32-23.64-7.72-2.88-2.84-13.47-8-19.22-2.73,0,0-10.44,17-.53,21.56,6.06,2.8,13,1,19.33.39a48.12,48.12,0,0,1,20.79,2.73c17.25,5.9,39.27,22.94,57.74,15.16C158.38,305.49,154.82,297.82,144.56,294.78Z"/></g></g></svg>