<svg xmlns="http://www.w3.org/2000/svg" viewBox="0 0 542.21 286.83"><defs><style>.cls-1{fill:#ffbe00;}.cls-2{fill:#ffd84d;opacity:0.5;}.cls-3{fill:#f9ed98;}.cls-4{fill:#ef9c07;}</style></defs><title>Ресурс 2</title><g id="Слой_2" data-name="Слой 2"><g id="Layer_1" data-name="Layer 1"><path class="cls-1" d="M260.15.09C241.42-3.43-9.46,101,.28,118.86c9.84,18,37.16,13.35,70.39,28.73,48.39,22.39,118.92,70.83,171.42,98.94,29.31,15.69,25.88,39.24,51,39.92,18.54.5,19.45-23,48.19-41.51,52.08-33.58,110.42-72.93,151.86-92.39,15.38-7.22,46.21-11.54,47.88-24.37C543.21,111.46,302.11,8,260.15.09Z"/><path class="cls-2" d="M305.23,204.66c-14.82-12.73-39-17.37-56.25-26.52-25.35-13.46-51.54-25.47-77.57-38-9.94-4.77-18.88-10-28.17-15.52-7.22-4.29-19.79-8.43-24.88-14.72C107.92,97,125.56,84,136.26,76.21c18.67-13.56,12-24.85-10.55-16.9-7.78,2.74-24.17,8.05-26,11.83L85.53,77.81C71.89,84.25,59.91,92.07,47,100c-5.59,3.41-16.87,6.46-11.2,13.2,2.9,3.45,21.49,6.7,26.47,8.12,22.82,6.51,39.45,12.35,60.08,23.93,13.61,7.64,29.76,11.39,44.13,17.92,13.72,6.23,26.12,14.5,38.85,22.25,22.68,13.79,44.5,27,61.41,46.22,5.95,6.77,11.21,13.63,16.69,20.68,8.61,11.07,10.35,9.54,17.59-1.17C311.06,236.26,322.79,219.74,305.23,204.66Z"/><path class="cls-2" d="M469,97.88c-19.25-5.19-37.56-10.09-55.85-18.81-8.58-4.09-17.4-7.49-26-11.62-7.26-3.48-12.86-10.34-20.26-12.8l-3.08-3.27c-9.12-7.23-13.48.9-9,8.42,3.05,5.11,10.59,10.07,15.72,13.36,12.86,8.26,27,12.78,38.7,23.18,18.63,16.56,10.85,25.13,7.12,44.51-4.66,24.17,23.34,11.44,36.81,5.1,9.49-4.46,16.32-6.16,25.88-8.13,7.22-1.49,17.94-3.85,21.15-11.24C506,113,480.13,100.88,469,97.88Z"/><path class="cls-3" d="M99.45,77l-3.18,1.7C86.1,83.82,76.44,89.66,66.63,95.13c-4.79,2.67-27.9,13.7-10.27,15.19C68,111.3,79,99.18,86.81,93.27c7.44-5.63,18.79-9.86,24.1-17.19C108.09,73,102,74.07,99.45,77Z"/><path class="cls-4" d="M542.19,128.55c.17-1.29-1.12-3.1-3.65-5.34-1.76,1.38-.24,6.08-2.31,7.46-15.62,10.44-32.24,12.6-50.44,20.06-43.9,18-83.61,43.67-122.94,69.28a376.49,376.49,0,0,0-41.92,31.89c-7.68,6.59-14,22.53-32.84,24.21-2.54.23-14.4-.75-20-6.64,7,9.37,12.06,17,26.19,17.35,18.54.5,19.45-23,48.2-41.51,52.08-33.58,110.42-72.93,151.86-92.39C509.69,145.7,540.53,141.38,542.19,128.55Z"/></g></g></svg>