<svg xmlns="http://www.w3.org/2000/svg" viewBox="0 0 523.56 249.9"><defs><style>.cls-1{fill:#893c29;}.cls-2{fill:#c25739;}.cls-3{fill:#f9735d;}</style></defs><title>Ресурс 1</title><g id="Слой_2" data-name="Слой 2"><g id="Layer_1" data-name="Layer 1"><path class="cls-1" d="M474.19,45.42C436.6,27.06,82.74,21.79,39.31,48.62-.92,74.16-.92,127.16.36,147.6s26.18,106,259.91,102.18S512,176.38,518.9,163.56C527.84,147,529.11,72.24,474.19,45.42Z"/><path class="cls-2" d="M239.19.08C84.66,2,10.57,51.17,10.57,103.53c0,48.6,89.4,84.29,222.23,88.13s262.46-31.93,272-84.93C514.16,55.18,442.26-2.47,239.19.08Z"/><path class="cls-3" d="M19.51,106.09C20.15,127.8,41.87,153.34,98.7,168,212.37,197.41,357,185.08,352.86,178.89c-5.11-7.66-61.18,16.55-231.81-15.33C93.26,158.37,70,149.28,55.28,137.38c-16-13-22.2-28.91-22.35-36.4-.64-31.29,21.71-39.59,13.41-43.42C41.66,55.4,18.39,67.74,19.51,106.09Z"/><path class="cls-1" d="M134.26,16.41c-5.9.37-20,15.55-44.72,46.09s-47.66,58.31-37.66,61.64,35.89-32.21,51.78-53.87S151.91,15.3,134.26,16.41Z"/><path class="cls-1" d="M209.82,11.51c-6.39.54-37.56,39.31-63.45,71.66s-52.87,65.89-41.91,69.1,40.88-38.49,57.47-61.38S228.93,9.9,209.82,11.51Z"/><path class="cls-1" d="M293.47,10.93c-6.37.7-39,48.62-63.39,81.9s-56.67,72.71-40.7,72.71c11.51,0,41.06-42.08,56.59-65.57S319.65,8,293.47,10.93Z"/><path class="cls-1" d="M380.52,19.08c-6.39-.55-39.57,42.52-64.92,75.22S256.88,165.67,272.84,166c11.51.27,42.24-41.11,58.44-64.24S399,20.67,380.52,19.08Z"/><path class="cls-1" d="M453.86,41.46c-5.14-.31-30.85,34.41-50.49,60.77s-45.6,57.6-32.77,57.59c9.25,0,33-33.35,45.53-52S468.74,42.36,453.86,41.46Z"/><path class="cls-1" d="M55.44,72.34a45.35,45.35,0,0,1,5.37-1.75c1.95-.64,1.11-3.72-.85-3.08a51.29,51.29,0,0,0-6.13,2.08c-1.86.88-.24,3.63,1.61,2.76Z"/><path class="cls-1" d="M57.83,58.51a15.75,15.75,0,0,1,4.68,1.22c2,.66,2.79-2.42.85-3.08a18.22,18.22,0,0,0-5.53-1.33c-2.06,0-2.06,3.15,0,3.19Z"/><path class="cls-1" d="M72,46.55a13.17,13.17,0,0,0,5.17,3c2,.66,2.79-2.42.85-3.08a9.53,9.53,0,0,1-3.77-2.14c-1.47-1.44-3.73.82-2.26,2.26Z"/><path class="cls-1" d="M72.52,62.35a14,14,0,0,0,5.91-.86A1.6,1.6,0,0,0,79,59.3a1.63,1.63,0,0,0-2.18-.57,10.75,10.75,0,0,1-4.3.42,1.6,1.6,0,0,0,0,3.19Z"/><path class="cls-1" d="M88.91,47.6A28.1,28.1,0,0,0,95,44.25c1.7-1.14.11-3.9-1.61-2.76a25,25,0,0,1-5.37,3c-1.93.68-1.1,3.77.85,3.08Z"/><path class="cls-1" d="M87.42,32.91a13.07,13.07,0,0,0,7.23.64c2-.45,1.16-3.53-.85-3.08a10,10,0,0,1-5.54-.64c-2-.65-2.79,2.43-.85,3.08Z"/><path class="cls-1" d="M107.64,29.78a3.94,3.94,0,0,0,1.75-.32,2.15,2.15,0,0,0,1.13-1.91,1.6,1.6,0,1,0-3.19,0,1.23,1.23,0,0,1,.57-.9c-.18.13.44-.12.07,0,.52-.12.19,0,0,0h-.34a1.6,1.6,0,0,0,0,3.19Z"/><path class="cls-1" d="M44.74,95.87a4.39,4.39,0,0,0,2.71,3.93,1.62,1.62,0,0,0,2.18-.57A1.6,1.6,0,0,0,49.06,97c-.22-.11-.43-.23-.64-.36-.05,0-.4-.3-.1-.05a2.94,2.94,0,0,1-.26-.25c-.27-.28.18.28,0,0-.05-.08-.17-.41,0,0a2.36,2.36,0,0,1-.09-.35c.08.41,0,0,0-.1a1.6,1.6,0,0,0-3.19,0Z"/><path class="cls-1" d="M47.12,82.31a4.16,4.16,0,0,0,3,1.11,1.6,1.6,0,1,0,0-3.19h-.32c-.11,0-.59-.08-.11,0-.11,0-.52-.2-.15,0l-.21-.13q.22.17,0,0a1.6,1.6,0,1,0-2.26,2.26Z"/><path class="cls-1" d="M104.45,87.89h3.83a1.6,1.6,0,0,0,0-3.19h-3.83a1.6,1.6,0,0,0,0,3.19Z"/><path class="cls-1" d="M112.54,72.51c1.88-.58,3.87-.69,5.75-1.28s1.12-3.69-.85-3.08-3.87.69-5.75,1.28-1.12,3.69.85,3.08Z"/><path class="cls-1" d="M145.53,66.76a19.82,19.82,0,0,0,5.53,1.33c2.06.07,2.05-3.13,0-3.19a17.16,17.16,0,0,1-4.68-1.22c-2-.65-2.79,2.43-.85,3.08Z"/><path class="cls-1" d="M135.25,54.85l1.92,1.92a1.6,1.6,0,1,0,2.26-2.26l-1.92-1.92a1.6,1.6,0,1,0-2.26,2.26Z"/><path class="cls-1" d="M126.16,50.21a4.75,4.75,0,0,0,3-1.75,1.6,1.6,0,0,0-2.26-2.26c-.24.24-.49.48-.75.71s-.14.12,0,0L126,47q-.24.12.06,0c-.18,0-.14,0,.11,0a1.62,1.62,0,0,0-1.6,1.6,1.6,1.6,0,0,0,1.6,1.6Z"/><path class="cls-1" d="M137,38.08h9.58a1.6,1.6,0,0,0,0-3.19H137a1.6,1.6,0,0,0,0,3.19Z"/><path class="cls-1" d="M146,23.39a15,15,0,0,1,4.68.58c2,.63,2.8-2.46.85-3.08a17.92,17.92,0,0,0-5.53-.7,1.6,1.6,0,0,0,0,3.19Z"/><path class="cls-1" d="M163.2,13.17h6.39a1.6,1.6,0,0,0,0-3.19H163.2a1.6,1.6,0,0,0,0,3.19Z"/><path class="cls-1" d="M175.48,21c1.2,1.16,2.64,2,3.83,3.19,1.48,1.44,3.74-.82,2.26-2.26-1.2-1.16-2.64-2-3.83-3.19-1.48-1.44-3.74.82-2.26,2.26Z"/><path class="cls-1" d="M162.71,27.39c1.37,1.41,2.46,3.06,3.83,4.47s3.7-.78,2.26-2.26-2.46-3.06-3.83-4.47-3.7.78-2.26,2.26Z"/><path class="cls-1" d="M154.26,48.3h5.11a1.6,1.6,0,0,0,0-3.19h-5.11a1.6,1.6,0,0,0,0,3.19Z"/><path class="cls-1" d="M172.14,40.63h4.47a1.6,1.6,0,0,0,0-3.19h-4.47a1.6,1.6,0,0,0,0,3.19Z"/><path class="cls-1" d="M188.91,27.64a7.05,7.05,0,0,1,3-.42,1.6,1.6,0,0,0,0-3.19,10.6,10.6,0,0,0-4.64.86,1.6,1.6,0,0,0-.57,2.18,1.63,1.63,0,0,0,2.18.57Z"/><path class="cls-1" d="M190,13.17h5.75a1.6,1.6,0,0,0,0-3.19H190a1.6,1.6,0,0,0,0,3.19Z"/><path class="cls-1" d="M221.31,6.79a8.73,8.73,0,0,1,4.94,1.06c1.75,1.1,3.35-1.67,1.61-2.76a11.82,11.82,0,0,0-6.55-1.5,1.6,1.6,0,0,0,0,3.19Z"/><path class="cls-1" d="M221.78,18.06A15.34,15.34,0,0,1,225.29,21a1.6,1.6,0,0,0,2.26-2.26,18.19,18.19,0,0,0-4.15-3.44c-1.82-1-3.43,1.8-1.61,2.76Z"/><path class="cls-1" d="M207.26,38.72a14.93,14.93,0,0,1,4.68.58c2,.63,2.8-2.46.85-3.08a17.92,17.92,0,0,0-5.53-.7,1.6,1.6,0,0,0,0,3.19Z"/><path class="cls-1" d="M187.94,60.21c1.23.58,2.61.71,3.83,1.28a1.63,1.63,0,0,0,2.18-.57,1.6,1.6,0,0,0-.57-2.18c-1.23-.58-2.61-.71-3.83-1.28a1.63,1.63,0,0,0-2.18.57,1.6,1.6,0,0,0,.57,2.18Z"/><path class="cls-1" d="M220.35,56.92a31.9,31.9,0,0,0,.7,7.45c.48,2,3.55,1.15,3.08-.85a28.15,28.15,0,0,1-.58-6.6,1.6,1.6,0,0,0-3.19,0Z"/><path class="cls-1" d="M209.5,49.25v3.19a1.6,1.6,0,0,0,3.19,0V49.25a1.6,1.6,0,0,0-3.19,0Z"/><path class="cls-1" d="M201.35,70.43a14.22,14.22,0,0,0,5.91,1.49c2.06,0,2.06-3.15,0-3.19a10.41,10.41,0,0,1-4.3-1.06c-1.85-.89-3.46,1.86-1.61,2.76Z"/><path class="cls-1" d="M242.22,56.38c1.23.58,2.61.71,3.83,1.28a1.63,1.63,0,0,0,2.18-.57,1.6,1.6,0,0,0-.57-2.18c-1.23-.58-2.61-.71-3.83-1.28a1.63,1.63,0,0,0-2.18.57,1.6,1.6,0,0,0,.57,2.18Z"/><path class="cls-1" d="M227.7,43.19a17.91,17.91,0,0,0,5.53-.7c2-.62,1.12-3.71-.85-3.08a14.91,14.91,0,0,1-4.68.58,1.6,1.6,0,0,0,0,3.19Z"/><path class="cls-1" d="M243.17,26.75a13.15,13.15,0,0,0,5.17,3c2,.66,2.79-2.42.85-3.08a9.53,9.53,0,0,1-3.77-2.14c-1.47-1.44-3.73.82-2.26,2.26Z"/><path class="cls-1" d="M239.66,12.32c1.23.58,2.61.71,3.83,1.28a1.63,1.63,0,0,0,2.18-.57,1.6,1.6,0,0,0-.57-2.18c-1.23-.58-2.61-.71-3.83-1.28a1.63,1.63,0,0,0-2.18.57,1.6,1.6,0,0,0,.57,2.18Z"/><path class="cls-1" d="M261.28,7.53c.65,2.08.77,4.27,1.28,6.39s3.56,1.15,3.08-.85-.63-4.31-1.28-6.39-3.7-1.12-3.08.85Z"/><path class="cls-1" d="M277.83,9v3.83a1.6,1.6,0,0,0,3.19,0V9a1.6,1.6,0,0,0-3.19,0Z"/><path class="cls-1" d="M261.69,23.56a13.17,13.17,0,0,0,5.17,3c2,.66,2.79-2.42.85-3.08a9.53,9.53,0,0,1-3.77-2.14c-1.47-1.44-3.73.82-2.26,2.26Z"/><path class="cls-1" d="M180.59,85.51l1.92,1.92a1.6,1.6,0,0,0,2.26-2.26l-1.92-1.92a1.6,1.6,0,0,0-2.26,2.26Z"/><path class="cls-1" d="M169.09,104a4.16,4.16,0,0,0,3,1.11,1.6,1.6,0,1,0,0-3.19h-.32c-.11,0-.58-.08-.11,0-.11,0-.52-.2-.15,0l-.21-.13q.22.17,0,0a1.6,1.6,0,1,0-2.26,2.26Z"/><path class="cls-1" d="M190.44,114.65a53.91,53.91,0,0,1,9.79-.58,1.6,1.6,0,0,0,0-3.19,58.42,58.42,0,0,0-10.64.7c-2,.37-1.16,3.45.85,3.08Z"/><path class="cls-1" d="M204.71,87.25h3.83a1.6,1.6,0,0,0,0-3.19h-3.83a1.6,1.6,0,0,0,0,3.19Z"/><path class="cls-1" d="M227.7,87.25c-.25,0-.28,0-.1,0s.14,0-.06,0c.18.08.36.17.53.26a3.87,3.87,0,0,0,1.55.43,1.6,1.6,0,1,0,0-3.19q.37.07.11,0c-.16-.06-.14,0,.06,0-.18-.08-.35-.17-.53-.26a3.84,3.84,0,0,0-1.55-.43,1.6,1.6,0,0,0,0,3.19Z"/><path class="cls-1" d="M69.47,128.29a11.5,11.5,0,0,0,2.88,2.17,1.62,1.62,0,0,0,2.18-.57A1.61,1.61,0,0,0,74,127.7q-.42-.21-.81-.46l-.28-.18s-.42-.32-.16-.12a12.1,12.1,0,0,1-1-.91,1.6,1.6,0,0,0-2.26,2.26Z"/><path class="cls-1" d="M84.8,111a5.21,5.21,0,0,0,3.68,1.75,1.6,1.6,0,0,0,0-3.19l-.35,0q.24,0,0,0l-.28-.09c.33.12-.05-.05-.1-.08s-.15-.1,0,0l-.2-.17c-.16-.14-.31-.3-.46-.45A1.6,1.6,0,0,0,84.8,111Z"/><path class="cls-1" d="M101.26,131.31a10.59,10.59,0,0,0,4.64-.86,1.6,1.6,0,0,0,.57-2.18,1.63,1.63,0,0,0-2.18-.57,7.05,7.05,0,0,1-3,.42,1.6,1.6,0,0,0,0,3.19Z"/><path class="cls-1" d="M115.94,102.58h4.47a1.6,1.6,0,0,0,0-3.19h-4.47a1.6,1.6,0,0,0,0,3.19Z"/><path class="cls-1" d="M144.51,133c.26.13.52.27.76.43,0,0,.4.3.1.06l.28.25c.09.09.18.18.26.27.28.32-.19-.27.07.09a7,7,0,0,1,.51.88,1.6,1.6,0,0,0,2.18.57,1.62,1.62,0,0,0,.57-2.18,7,7,0,0,0-3.13-3.13,1.62,1.62,0,0,0-2.18.57,1.61,1.61,0,0,0,.57,2.18Z"/><path class="cls-1" d="M137.87,149.78c2.33.65,4,2.4,5.68,4.06a1.6,1.6,0,0,0,2.26-2.26c-2.07-2.07-4.21-4.08-7.09-4.88a1.6,1.6,0,0,0-.85,3.08Z"/><path class="cls-1" d="M171.5,151.75h6.39a1.6,1.6,0,0,0,0-3.19H171.5a1.6,1.6,0,0,0,0,3.19Z"/><path class="cls-1" d="M161.28,119.82h.32c.11,0,.59.08.11,0,.11,0,.52.2.15,0l.21.13c-.15-.11-.15-.11,0,0a1.6,1.6,0,0,0,2.26-2.26,4.16,4.16,0,0,0-3-1.11,1.6,1.6,0,0,0,0,3.19Z"/><path class="cls-1" d="M295.54,39.53c1.78,1.65,4.21,2.23,6.45,3,2,.64,2.8-2.44.85-3.08-1.66-.55-3.72-.92-5-2.14-1.51-1.4-3.77.86-2.26,2.26Z"/><path class="cls-1" d="M306.39,21.65a15.9,15.9,0,0,0,7.09,4.24,1.6,1.6,0,0,0,.85-3.08,12.6,12.6,0,0,1-5.68-3.42c-1.47-1.44-3.73.81-2.26,2.26Z"/><path class="cls-1" d="M300.07,9.92a23.18,23.18,0,0,0,6.81.7,1.6,1.6,0,0,0,0-3.19,20.18,20.18,0,0,1-6-.58c-2-.61-2.81,2.48-.85,3.08Z"/><path class="cls-1" d="M324.93,15.51c1.45-.66,3.21-.64,4.73-1.12,2-.61,1.12-3.69-.85-3.08-1.82.57-3.74.65-5.49,1.44a1.6,1.6,0,0,0-.57,2.18,1.63,1.63,0,0,0,2.18.57Z"/><path class="cls-1" d="M330,33.39l7.66-3.83c1.84-.92.22-3.67-1.61-2.76l-7.66,3.83c-1.84.92-.22,3.67,1.61,2.76Z"/><path class="cls-1" d="M338.17,29.14a1.6,1.6,0,0,0,0-3.19,1.6,1.6,0,0,0,0,3.19Z"/><path class="cls-1" d="M314.55,53.41a10.77,10.77,0,0,1,4.3.42,1.63,1.63,0,0,0,2.18-.57,1.6,1.6,0,0,0-.57-2.18,14,14,0,0,0-5.91-.86,1.6,1.6,0,0,0,0,3.19Z"/><path class="cls-1" d="M313.64,36.91c.95,2.55,3.17,3.5,5.58,4.31,2,.65,2.79-2.43.85-3.08-1.15-.38-2.88-.79-3.36-2.08a1.63,1.63,0,0,0-2-1.11,1.6,1.6,0,0,0-1.12,2Z"/><path class="cls-1" d="M334.49,42.72c1.41,1.37,3.06,2.46,4.47,3.83s3.73-.82,2.26-2.26-3.06-2.46-4.47-3.83-3.73.82-2.26,2.26Z"/><path class="cls-1" d="M345.2,31.05h6.39a1.6,1.6,0,0,0,0-3.19H345.2a1.6,1.6,0,0,0,0,3.19Z"/><path class="cls-1" d="M360.52,22.75a31.85,31.85,0,0,0,7.45-.7c2-.48,1.15-3.55-.85-3.08a28.18,28.18,0,0,1-6.6.58,1.6,1.6,0,0,0,0,3.19Z"/><path class="cls-1" d="M336.73,12.32a14,14,0,0,0,5.91.86,1.6,1.6,0,0,0,0-3.19,10.77,10.77,0,0,1-4.3-.42,1.63,1.63,0,0,0-2.18.57,1.6,1.6,0,0,0,.57,2.18Z"/><path class="cls-1" d="M361.63,14.87a10.61,10.61,0,0,0,4.64.86,1.6,1.6,0,0,0,0-3.19,7.05,7.05,0,0,1-3-.42,1.63,1.63,0,0,0-2.18.57,1.6,1.6,0,0,0,.57,2.18Z"/><path class="cls-1" d="M280.87,73a10.43,10.43,0,0,1,4.3-1.06c2.06,0,2.06-3.24,0-3.19a14.22,14.22,0,0,0-5.91,1.5c-1.85.9-.23,3.65,1.61,2.76Z"/><path class="cls-1" d="M283.89,59.79h5.75a1.6,1.6,0,0,0,0-3.19h-5.75a1.6,1.6,0,0,0,0,3.19Z"/><path class="cls-1" d="M309,64.84a23.11,23.11,0,0,1,5.37,2.39c1.73,1.12,3.33-1.64,1.61-2.76a26.59,26.59,0,0,0-6.13-2.72c-2-.65-2.79,2.43-.85,3.08Z"/><path class="cls-1" d="M295.86,82.56a12.52,12.52,0,0,0,1.91.71l.77.23c.09,0,.29.18.18.08a1.62,1.62,0,0,0,2.26,0,1.6,1.6,0,0,0,0-2.26c-1-.92-2.32-1-3.52-1.53a1.63,1.63,0,0,0-2.18.57,1.6,1.6,0,0,0,.57,2.18Z"/><path class="cls-1" d="M253.24,100.66h3.19a1.6,1.6,0,0,0,0-3.19h-3.19a1.6,1.6,0,0,0,0,3.19Z"/><path class="cls-1" d="M266,87.25h5.11a1.6,1.6,0,0,0,0-3.19H266a1.6,1.6,0,0,0,0,3.19Z"/><path class="cls-1" d="M255.8,124.93h4.47a1.6,1.6,0,0,0,0-3.19H255.8a1.6,1.6,0,0,0,0,3.19Z"/><path class="cls-1" d="M232.32,130.85c1.34,1.28,3.14,1.92,4.47,3.19,1.49,1.42,3.75-.83,2.26-2.26-1.34-1.28-3.14-1.92-4.47-3.19-1.49-1.42-3.75.83-2.26,2.26Z"/><path class="cls-1" d="M223.06,155.36a14,14,0,0,0,5.91.86,1.6,1.6,0,0,0,0-3.19,10.75,10.75,0,0,1-4.3-.42,1.63,1.63,0,0,0-2.18.57,1.6,1.6,0,0,0,.57,2.18Z"/><path class="cls-1" d="M242.38,166.44a18.28,18.28,0,0,0,5.53-1.33c1.94-.66,1.11-3.74-.85-3.08a15.74,15.74,0,0,1-4.68,1.22c-2.06,0-2.06,3.24,0,3.19Z"/><path class="cls-1" d="M269.21,144.72a11.82,11.82,0,0,0,6.55-1.5c1.74-1.09.14-3.85-1.61-2.76a8.73,8.73,0,0,1-4.94,1.06,1.6,1.6,0,0,0,0,3.19Z"/><path class="cls-1" d="M282.19,117.21a39.28,39.28,0,0,1,4.73,1.75c1.84.89,3.46-1.86,1.61-2.76a45.53,45.53,0,0,0-5.49-2.08c-2-.65-2.79,2.43-.85,3.08Z"/><path class="cls-1" d="M288.83,98.53C291.2,100,294,100,296.66,100a1.6,1.6,0,0,0,0-3.19c-2.12,0-4.35.09-6.22-1.06s-3.36,1.68-1.61,2.76Z"/><path class="cls-1" d="M319,77h3.83a1.6,1.6,0,0,0,0-3.19H319A1.6,1.6,0,0,0,319,77Z"/><path class="cls-1" d="M375,64a51.11,51.11,0,0,0,6.13,2.08c2,.64,2.8-2.44.85-3.08a45.3,45.3,0,0,1-5.37-1.75c-1.85-.88-3.47,1.88-1.61,2.76Z"/><path class="cls-1" d="M386.28,52.07a25.41,25.41,0,0,0,7.45,1.33c2.06,0,2.06-3.16,0-3.19a22.39,22.39,0,0,1-6.6-1.22c-2-.64-2.8,2.44-.85,3.08Z"/><path class="cls-1" d="M411.61,47h7.66a1.6,1.6,0,0,0,0-3.19h-7.66a1.6,1.6,0,0,0,0,3.19Z"/><path class="cls-1" d="M393.52,38a17.64,17.64,0,0,1,5.32-.58,1.6,1.6,0,0,0,0-3.19,20.63,20.63,0,0,0-6.17.7c-2,.61-1.12,3.69.85,3.08Z"/><path class="cls-1" d="M392.45,27.86h5.75a1.6,1.6,0,0,0,0-3.19h-5.75a1.6,1.6,0,0,0,0,3.19Z"/><path class="cls-1" d="M388,20.84a10.77,10.77,0,0,1,5.58,1.7c1.74,1.11,3.34-1.66,1.61-2.76A14,14,0,0,0,388,17.64c-2.06,0-2.06,3.15,0,3.19Z"/><path class="cls-1" d="M413.36,28.28A44.82,44.82,0,0,0,418.85,31c1.95.69,2.78-2.4.85-3.08A38.86,38.86,0,0,1,415,25.53c-1.83-.94-3.44,1.82-1.61,2.76Z"/><path class="cls-1" d="M435.71,38.5c1.45.79,2.37,2.57,3.26,3.9,1.14,1.7,3.9.11,2.76-1.61s-2.45-4-4.4-5-3.42,1.77-1.61,2.76Z"/><path class="cls-1" d="M424.28,41.12c.8,1.49,2.26,2.36,3.44,3.52,1.47,1.44,3.73-.82,2.26-2.26-1-.95-2.34-1.74-2.94-2.87a1.6,1.6,0,0,0-2.76,1.61Z"/><path class="cls-1" d="M422.62,60.6l.18.2c.31.35-.18-.25.12.15.16.22.31.45.46.67a11.09,11.09,0,0,0,1.16,1.53,1.6,1.6,0,1,0,2.26-2.26l-.18-.2c-.31-.35.18.25-.12-.15-.16-.22-.31-.45-.46-.67a11,11,0,0,0-1.16-1.53,1.6,1.6,0,1,0-2.26,2.26Z"/><path class="cls-1" d="M350.84,82.93c-1.18,2.71,1.07,4.62,3.13,6a1.6,1.6,0,0,0,2.18-.57,1.62,1.62,0,0,0-.57-2.18A10.2,10.2,0,0,1,354,84.94a2.24,2.24,0,0,1-.37-.51c0,.1,0,.06,0-.12a.26.26,0,0,1,0,.23,1.64,1.64,0,0,0-.57-2.18,1.6,1.6,0,0,0-2.18.57Z"/><path class="cls-1" d="M365.14,75.29a15.9,15.9,0,0,0,5.81,3.6c1.95.69,2.78-2.4.85-3.08A12.19,12.19,0,0,1,367.4,73c-1.48-1.43-3.74.82-2.26,2.26Z"/><path class="cls-1" d="M365.63,100a12.39,12.39,0,0,0,5.28-.86,1.6,1.6,0,0,0,.57-2.18,1.63,1.63,0,0,0-2.18-.57,9,9,0,0,1-3.66.42,1.6,1.6,0,0,0,0,3.19Z"/><path class="cls-1" d="M388.62,96.83H395a1.6,1.6,0,0,0,0-3.19h-6.39a1.6,1.6,0,0,0,0,3.19Z"/><path class="cls-1" d="M389.48,78.89a20.66,20.66,0,0,0,6.17.7,1.6,1.6,0,0,0,0-3.19,17.61,17.61,0,0,1-5.32-.58c-2-.61-2.81,2.47-.85,3.08Z"/><path class="cls-1" d="M403.14,61.49c1.23.58,2.61.71,3.83,1.28a1.63,1.63,0,0,0,2.18-.57,1.6,1.6,0,0,0-.57-2.18c-1.23-.58-2.61-.71-3.83-1.28a1.63,1.63,0,0,0-2.18.57,1.6,1.6,0,0,0,.57,2.18Z"/><path class="cls-1" d="M409.06,77a7.05,7.05,0,0,1,3,.42,1.63,1.63,0,0,0,2.18-.57,1.6,1.6,0,0,0-.57-2.18,10.59,10.59,0,0,0-4.64-.86,1.6,1.6,0,0,0,0,3.19Z"/><path class="cls-1" d="M322.85,135.15h3.83a1.6,1.6,0,0,0,0-3.19h-3.83a1.6,1.6,0,0,0,0,3.19Z"/><path class="cls-1" d="M335.45,115.13a12.39,12.39,0,0,0,5.28.86,1.6,1.6,0,0,0,0-3.19,9,9,0,0,1-3.66-.42,1.63,1.63,0,0,0-2.18.57,1.6,1.6,0,0,0,.57,2.18Z"/><path class="cls-1" d="M359.25,125.57H365a1.6,1.6,0,0,0,0-3.19h-5.75a1.6,1.6,0,0,0,0,3.19Z"/><path class="cls-1" d="M344.73,150.25a23.07,23.07,0,0,1,5.37-2.39c1.94-.65,1.11-3.73-.85-3.08a26.58,26.58,0,0,0-6.13,2.71c-1.72,1.11-.12,3.88,1.61,2.76Z"/><path class="cls-1" d="M302,161.91a21.1,21.1,0,0,0,6.17,1.33c2.06,0,2.06-3.15,0-3.19a18.31,18.31,0,0,1-5.32-1.22c-2-.65-2.79,2.43-.85,3.08Z"/><path class="cls-1" d="M340.09,167.08h4.47a1.6,1.6,0,0,0,0-3.19h-4.47a1.6,1.6,0,0,0,0,3.19Z"/><path class="cls-1" d="M404.37,156.8a28.68,28.68,0,0,1,6.6-1.22c2.06,0,2.06-3.23,0-3.19a32.42,32.42,0,0,0-7.45,1.33c-2,.51-1.15,3.58.85,3.08Z"/><path class="cls-1" d="M409.06,140.89a35.65,35.65,0,0,0,8.09-.7c2-.46,1.15-3.54-.85-3.08a31.88,31.88,0,0,1-7.24.58,1.6,1.6,0,0,0,0,3.19Z"/><path class="cls-1" d="M439.86,130.85a14,14,0,0,0,5.17,3.6c1.95.69,2.77-2.39.85-3.08a10.55,10.55,0,0,1-3.77-2.78,1.6,1.6,0,0,0-2.26,2.26Z"/><path class="cls-1" d="M435.71,144.51a5.34,5.34,0,0,1,2,2.62,1.6,1.6,0,0,0,2.18.57,1.62,1.62,0,0,0,.57-2.18,8,8,0,0,0-3.13-3.77,1.6,1.6,0,0,0-1.61,2.76Z"/><path class="cls-1" d="M420.55,116a11.93,11.93,0,0,0,5.28-.86,1.6,1.6,0,0,0,.57-2.18,1.63,1.63,0,0,0-2.18-.57,8.63,8.63,0,0,1-3.66.42,1.6,1.6,0,0,0,0,3.19Z"/><path class="cls-1" d="M446.73,107a28.18,28.18,0,0,1,6.6.58c2,.47,2.85-2.6.85-3.08a32,32,0,0,0-7.45-.7,1.6,1.6,0,0,0,0,3.19Z"/><path class="cls-1" d="M439.07,120.46a10.59,10.59,0,0,0,4.64-.86,1.6,1.6,0,0,0,.57-2.18,1.63,1.63,0,0,0-2.18-.57,7.05,7.05,0,0,1-3,.42,1.6,1.6,0,0,0,0,3.19Z"/><path class="cls-1" d="M471.49,127a9.53,9.53,0,0,1,3.77-2.14c1.94-.66,1.11-3.74-.85-3.08a13.16,13.16,0,0,0-5.17,3c-1.48,1.44.78,3.7,2.26,2.26Z"/><path class="cls-1" d="M484.9,111.69a11.2,11.2,0,0,1,5-2.78,1.6,1.6,0,0,0-.85-3.08,14.51,14.51,0,0,0-6.45,3.6c-1.48,1.44.78,3.69,2.26,2.26Z"/><path class="cls-1" d="M473.13,98a21.41,21.41,0,0,0,9.15.64c2-.36,1.16-3.43-.85-3.08A17.59,17.59,0,0,1,474,95c-2-.5-2.85,2.58-.85,3.08Z"/><path class="cls-1" d="M446.24,78.48l3.83,3.83a1.6,1.6,0,0,0,2.26-2.26l-3.83-3.83a1.6,1.6,0,0,0-2.26,2.26Z"/><path class="cls-1" d="M438.33,89l3.83,5.75c1.14,1.7,3.9.11,2.76-1.61l-3.83-5.75c-1.14-1.7-3.9-.11-2.76,1.61Z"/><path class="cls-1" d="M463.71,79.69A19,19,0,0,0,468,86.78c1.43,1.48,3.69-.78,2.26-2.26a15.35,15.35,0,0,1-3.42-5.68c-.67-1.93-3.75-1.1-3.08.85Z"/><path class="cls-1" d="M458.44,67.4c2.64.89,5.27,1.89,8.09,2,2.06.06,2.05-3.14,0-3.19-2.51-.07-4.89-1.06-7.24-1.86-2-.66-2.79,2.42-.85,3.08Z"/><path class="cls-1" d="M465.25,53.41a9.29,9.29,0,0,1,3.66,1.06c1.84.89,3.46-1.86,1.61-2.76a13.13,13.13,0,0,0-5.28-1.5c-2.06-.06-2.05,3.14,0,3.19Z"/><path class="cls-1" d="M484.15,68.84a75.63,75.63,0,0,0,5.27,10,1.6,1.6,0,0,0,2.76-1.61,70.54,70.54,0,0,1-4.95-9.2c-.77-1.87-3.86-1.05-3.08.85Z"/><path class="cls-1" d="M473.24,65.22c0,1.93.2,4.15,2.07,5.21s3.4-1.74,1.61-2.76q-.26-.15-.11-.06c-.14-.14-.16-.17-.07-.09a2,2,0,0,1-.21-.66,9,9,0,0,1-.08-1.64,1.6,1.6,0,0,0-3.19,0Z"/><path class="cls-1" d="M481.05,83.84a62.65,62.65,0,0,0,6.39,3.83c1.83.93,3.45-1.83,1.61-2.76a62.76,62.76,0,0,1-6.39-3.83c-1.72-1.15-3.32,1.62-1.61,2.76Z"/><path class="cls-1" d="M496.23,90.12a48.21,48.21,0,0,0,1.33,8.73c.41,2,3.49,1.16,3.08-.85a43.44,43.44,0,0,1-1.22-7.88c0-2.06-3.23-2.06-3.19,0Z"/><path class="cls-1" d="M216.84,29.78a25.36,25.36,0,0,1,6,.58c2,.48,2.85-2.6.85-3.08a29.13,29.13,0,0,0-6.81-.7,1.6,1.6,0,0,0,0,3.19Z"/><path class="cls-1" d="M241.26,37.61a38.73,38.73,0,0,0,5.43,4.72c1.71,1.17,3.3-1.6,1.61-2.76a34.37,34.37,0,0,1-4.79-4.22,1.6,1.6,0,0,0-2.26,2.26Z"/><path class="cls-1" d="M256.91,34.67c1.13.6,2,1.89,3.19,2.55a1.6,1.6,0,0,0,1.61-2.76c-1.13-.6-2-1.89-3.19-2.55a1.6,1.6,0,1,0-1.61,2.76Z"/><path class="cls-1" d="M242.38,6.15H250A1.6,1.6,0,0,0,250,3h-7.66a1.6,1.6,0,0,0,0,3.19Z"/><path class="cls-1" d="M250.58,13l1.92,3.83a1.6,1.6,0,0,0,2.18.57,1.62,1.62,0,0,0,.57-2.18l-1.92-3.83a1.6,1.6,0,0,0-2.18-.57,1.62,1.62,0,0,0-.57,2.18Z"/><path class="cls-1" d="M178.53,9.34h5.75a1.6,1.6,0,0,0,0-3.19h-5.75a1.6,1.6,0,0,0,0,3.19Z"/><path class="cls-1" d="M154.47,31.64c1.76.63,3.2,2,4.73,3,1.71,1.16,3.3-1.61,1.61-2.76s-3.41-2.61-5.49-3.35-2.77,2.39-.85,3.08Z"/><path class="cls-1" d="M141.49,31.05H146a1.6,1.6,0,0,0,0-3.19h-4.47a1.6,1.6,0,0,0,0,3.19Z"/><path class="cls-1" d="M144,14.45a50.1,50.1,0,0,0,9.36-.7c2-.38,1.16-3.46-.85-3.08a45.68,45.68,0,0,1-8.52.58,1.6,1.6,0,0,0,0,3.19Z"/><path class="cls-1" d="M320.51,24A25.37,25.37,0,0,0,328,25.31c2.06,0,2.06-3.16,0-3.19a22.39,22.39,0,0,1-6.6-1.22c-2-.64-2.8,2.44-.85,3.08Z"/><path class="cls-1" d="M314.55,10.62c1.73,0,3.38-.6,5.11-.64,2.06,0,2.06-3.24,0-3.19-1.73,0-3.38.6-5.11.64-2.06,0-2.06,3.24,0,3.19Z"/><path class="cls-1" d="M300.4,29.62c1,1.84,2.91,2.65,4.79,3.29s2.79-2.42.85-3.08A10.46,10.46,0,0,1,304.1,29a2.17,2.17,0,0,1-.95-1c-1-1.82-3.73-.21-2.76,1.61Z"/><path class="cls-1" d="M371.8,59.73a41.34,41.34,0,0,0,8-2.72c1.85-.89.23-3.65-1.61-2.76A37.45,37.45,0,0,1,371,56.66c-2,.5-1.15,3.58.85,3.08Z"/><path class="cls-1" d="M382.66,43.77a22.39,22.39,0,0,1,6.6-1.22c2.06,0,2.06-3.23,0-3.19a25.38,25.38,0,0,0-7.45,1.33c-1.95.63-1.11,3.72.85,3.08Z"/><path class="cls-1" d="M399.22,47.76a16.61,16.61,0,0,0,4.24,5.81,1.6,1.6,0,0,0,2.26-2.26c-1.28-1.28-2.78-2.66-3.42-4.4-.7-1.92-3.79-1.09-3.08.85Z"/><path class="cls-1" d="M416.72,52.13h5.11a1.6,1.6,0,0,0,0-3.19h-5.11a1.6,1.6,0,0,0,0,3.19Z"/><path class="cls-1" d="M405.6,34.35a8.53,8.53,0,0,0,5.59,4.95c1.95.68,2.78-2.41.85-3.08a5.21,5.21,0,0,1-3.36-2.72c-.7-1.92-3.79-1.09-3.08.85Z"/><path class="cls-1" d="M402.25,22.06c1.72.59,3.39,1.33,5.11,1.92,2,.67,2.79-2.42.85-3.08-1.72-.59-3.39-1.33-5.11-1.91-2-.67-2.79,2.42-.85,3.08Z"/><path class="cls-1" d="M429.71,30.36a40.52,40.52,0,0,1,8.56,4.95c1.66,1.22,3.25-1.55,1.61-2.76a43.59,43.59,0,0,0-9.32-5.27c-1.9-.78-2.73,2.31-.85,3.08Z"/><path class="cls-1" d="M459,44a6.72,6.72,0,0,0,4.32,2.38,1.6,1.6,0,0,0,0-3.19,2.27,2.27,0,0,1-1-.5,10.49,10.49,0,0,1-1-.95A1.6,1.6,0,0,0,459,44Z"/><path class="cls-2" d="M26.44,151.6c1.19,2.16,3.69,3.71,5.68,5,1.71,1.15,3.31-1.62,1.61-2.76-1.53-1-3.62-2.24-4.54-3.9s-3.75-.19-2.76,1.61Z"/><path class="cls-2" d="M18.56,159.09a30.25,30.25,0,0,0,2.61,10.64c.75,1.89,3.84,1.07,3.08-.85-1.27-3.19-2.42-6.32-2.5-9.79,0-2.06-3.24-2.06-3.19,0Z"/><path class="cls-2" d="M32.76,170c1.45.79,2.37,2.57,3.26,3.9,1.14,1.7,3.9.11,2.76-1.61s-2.45-4-4.4-5c-1.81-1-3.42,1.77-1.61,2.76Z"/><path class="cls-2" d="M35.31,189.21c3.3,1.92,6.92,3.19,10.22,5.11a1.6,1.6,0,0,0,1.61-2.76c-3.3-1.92-6.92-3.19-10.22-5.11a1.6,1.6,0,0,0-1.61,2.76Z"/><path class="cls-2" d="M64.22,200.92H73.8a1.6,1.6,0,0,0,0-3.19H64.22a1.6,1.6,0,0,0,0,3.19Z"/><path class="cls-2" d="M52.72,186.23a50.18,50.18,0,0,1,9.15.58c2,.37,2.87-2.71.85-3.08a54.69,54.69,0,0,0-10-.7,1.6,1.6,0,0,0,0,3.19Z"/><path class="cls-2" d="M50,169.57a24.83,24.83,0,0,0,7.41-2.71c1.73-1.1.13-3.86-1.61-2.76a22.12,22.12,0,0,1-6.64,2.39c-2,.5-1.15,3.58.85,3.08Z"/><path class="cls-2" d="M73.63,175.16A22.31,22.31,0,0,1,81,181.29c1.26,1.63,3.5-.65,2.26-2.26a24.45,24.45,0,0,0-8-6.64c-1.83-.94-3.44,1.81-1.61,2.76Z"/><path class="cls-2" d="M72.67,186.4a38.66,38.66,0,0,0,5.43,4.72c1.71,1.17,3.3-1.6,1.61-2.76a34.3,34.3,0,0,1-4.79-4.22,1.6,1.6,0,0,0-2.26,2.26Z"/><path class="cls-2" d="M83.8,220a41.36,41.36,0,0,0,8-2.72c1.85-.89.23-3.65-1.61-2.76a37.46,37.46,0,0,1-7.28,2.39c-2,.5-1.15,3.58.85,3.08Z"/><path class="cls-2" d="M68.69,211.14h3.83a1.6,1.6,0,0,0,0-3.19H68.69a1.6,1.6,0,0,0,0,3.19Z"/><path class="cls-2" d="M94,204.7a34.38,34.38,0,0,1,7.88-.58,1.6,1.6,0,0,0,0-3.19,38.15,38.15,0,0,0-8.73.7c-2,.47-1.15,3.55.85,3.08Z"/><path class="cls-2" d="M95.72,189.37c2.76.69,5.52,1.35,8.3,1.92,2,.41,2.87-2.67.85-3.08-2.78-.56-5.54-1.23-8.3-1.91-2-.5-2.85,2.58-.85,3.08Z"/><path class="cls-2" d="M112.26,187.68c1.34,1.16,3.28,1.11,5,1.11a1.6,1.6,0,0,0,0-3.19c-.57,0-1.14,0-1.72,0a4.93,4.93,0,0,1-.63-.08c-.24,0-.5-.18-.35-.05a1.62,1.62,0,0,0-2.26,0,1.6,1.6,0,0,0,0,2.26Z"/><path class="cls-2" d="M138.93,204.11a31.83,31.83,0,0,1,7.24.58c2,.46,2.85-2.62.85-3.08a35.71,35.71,0,0,0-8.09-.7,1.6,1.6,0,0,0,0,3.19Z"/><path class="cls-2" d="M117.22,215.61h7a1.6,1.6,0,0,0,0-3.19h-7a1.6,1.6,0,0,0,0,3.19Z"/><path class="cls-2" d="M112.58,225c2.67,2,5.38,3.89,8.68,4.63,2,.45,2.86-2.62.85-3.08-3-.69-5.47-2.48-7.92-4.31-1.65-1.24-3.24,1.54-1.61,2.76Z"/><path class="cls-2" d="M146.17,232.15c2.53.59,5.13.69,7.66,1.28,2,.46,2.85-2.61.85-3.08-2.53-.59-5.13-.69-7.66-1.28-2-.46-2.85,2.61-.85,3.08Z"/><path class="cls-2" d="M159.37,216.88c2.15,0,4.24-.61,6.39-.64s2.06-3.22,0-3.19-4.24.6-6.39.64-2.06,3.23,0,3.19Z"/><path class="cls-2" d="M177.89,206a20.66,20.66,0,0,0,6.17-.7c2-.61,1.12-3.69-.85-3.08a17.63,17.63,0,0,1-5.32.58,1.6,1.6,0,0,0,0,3.19Z"/><path class="cls-2" d="M149.15,193.26h6.39a1.6,1.6,0,0,0,0-3.19h-6.39a1.6,1.6,0,0,0,0,3.19Z"/><path class="cls-2" d="M215.4,228.8a12.74,12.74,0,0,0,8.25.8c2-.57,1.13-3.65-.85-3.08A9.37,9.37,0,0,1,217,226c-1.86-.85-3.48,1.9-1.61,2.76Z"/><path class="cls-2" d="M183.47,235.19a26.28,26.28,0,0,0,10,4c2,.42,2.86-2.66.85-3.08a24,24,0,0,1-9.2-3.67c-1.68-1.2-3.27,1.57-1.61,2.76Z"/><path class="cls-2" d="M195.13,220.08c2.74-.08,5-1.29,7.19-2.77,1.71-1.13.11-3.9-1.61-2.76s-3.44,2.27-5.58,2.34-2.06,3.25,0,3.19Z"/><path class="cls-2" d="M218.12,205.39c3.21,0,6.37-.59,9.58-.64,2.06,0,2.06-3.22,0-3.19-3.21,0-6.37.59-9.58.64-2.06,0-2.06,3.22,0,3.19Z"/><path class="cls-2" d="M255.63,206.45c2.18,1.38,4.71,2.07,7,3.19,1.84.89,3.46-1.86,1.61-2.76-2.31-1.12-4.85-1.81-7-3.19-1.75-1.11-3.35,1.66-1.61,2.76Z"/><path class="cls-2" d="M248.35,221.94a33.25,33.25,0,0,1,4.09,1.12,1.63,1.63,0,0,0,2.18-.57,1.6,1.6,0,0,0-.57-2.18,38.56,38.56,0,0,0-4.85-1.44c-2-.63-2.8,2.45-.85,3.08Z"/><path class="cls-2" d="M247.66,241.57a10.75,10.75,0,0,1,4.3-.42,1.6,1.6,0,0,0,0-3.19,14,14,0,0,0-5.91.86,1.6,1.6,0,0,0-.57,2.18,1.63,1.63,0,0,0,2.18.57Z"/><path class="cls-2" d="M299.86,220.72a32.37,32.37,0,0,0,7.45-1.33c2-.51,1.15-3.59-.85-3.08a28.68,28.68,0,0,1-6.6,1.22c-2.06,0-2.06,3.23,0,3.19Z"/><path class="cls-2" d="M4.57,129.5c.76,2.17,2,4.15,2.55,6.39A1.6,1.6,0,0,0,10.2,135c-.6-2.24-1.79-4.21-2.55-6.39-.68-1.93-3.76-1.1-3.08.85Z"/><path class="cls-2" d="M52.08,179.21a28.7,28.7,0,0,0,10-2c1.9-.73,1.08-3.82-.85-3.08A26.17,26.17,0,0,1,52.08,176c-2.06,0-2.06,3.22,0,3.19Z"/><path class="cls-2" d="M44.91,183.85a6.41,6.41,0,0,0,1-6c-.58-2-3.66-1.13-3.08.85a3.59,3.59,0,0,1-.23,2.92c-1.37,1.53.88,3.79,2.26,2.26Z"/><path class="cls-2" d="M52.62,198.21c1.28,2.68,1.91,5.62,3.19,8.3.89,1.86,3.64.24,2.76-1.61-1.28-2.68-1.91-5.62-3.19-8.3-.89-1.86-3.64-.24-2.76,1.61Z"/><path class="cls-2" d="M80.18,209.86h7.66a1.6,1.6,0,0,0,0-3.19H80.18a1.6,1.6,0,0,0,0,3.19Z"/><path class="cls-2" d="M81.46,200.28a12.84,12.84,0,0,0,8.79-3c1.51-1.41-.75-3.66-2.26-2.26-1.74,1.63-4.23,2.06-6.53,2.09-2.06,0-2.06,3.22,0,3.19Z"/><path class="cls-2" d="M89.38,188.89a22.13,22.13,0,0,1,2.39-6.64c1.1-1.75-1.66-3.35-2.76-1.61A24.8,24.8,0,0,0,86.3,188c-.5,2,2.58,2.85,3.08.85Z"/><path class="cls-2" d="M97.85,198.31a15,15,0,0,1,7.45-.64c2,.44,2.86-2.64.85-3.08a18.2,18.2,0,0,0-9.15.64c-2,.62-1.12,3.7.85,3.08Z"/><path class="cls-2" d="M100.72,216.73a11.86,11.86,0,0,1,6.07-4.37,1.6,1.6,0,0,0-.85-3.08,15.46,15.46,0,0,0-8,5.84c-1.26,1.63,1.52,3.22,2.76,1.61Z"/><path class="cls-2" d="M101.26,225.19a1.6,1.6,0,0,0,0-3.19,1.6,1.6,0,0,0,0,3.19Z"/><path class="cls-2" d="M101.89,225.19h3.83a1.6,1.6,0,0,0,0-3.19h-3.83a1.6,1.6,0,0,0,0,3.19Z"/><path class="cls-2" d="M110.83,203.47a13.29,13.29,0,0,1,6.86,1.7c1.75,1.09,3.35-1.67,1.61-2.76a16.51,16.51,0,0,0-8.47-2.13c-2.06,0-2.06,3.16,0,3.19Z"/><path class="cls-2" d="M124.88,195.17h7.66a1.6,1.6,0,0,0,0-3.19h-7.66a1.6,1.6,0,0,0,0,3.19Z"/><path class="cls-2" d="M133.82,213.05c2.36,0,4.66.6,7,.64,2.06,0,2.06-3.16,0-3.19-2.36,0-4.66-.6-7-.64-2.06,0-2.06,3.16,0,3.19Z"/><path class="cls-2" d="M131.48,225.77a20.49,20.49,0,0,1,4.73,2.39c1.72,1.14,3.32-1.63,1.61-2.76a23.78,23.78,0,0,0-5.49-2.72c-2-.66-2.79,2.42-.85,3.08Z"/><path class="cls-2" d="M160,225.83a10.6,10.6,0,0,0,4.64-.86,1.6,1.6,0,0,0,.57-2.18,1.63,1.63,0,0,0-2.18-.57,7.05,7.05,0,0,1-3,.42,1.6,1.6,0,0,0,0,3.19Z"/><path class="cls-2" d="M162.56,204.11q-.43-.08-.2,0l-.26-.11q.2.12-.17-.14c.1.08.18.17.27.25a2.5,2.5,0,0,0,1.63.66,1.6,1.6,0,1,0,0-3.19c.29.05.35.06.2,0l.26.11c-.13-.08-.08,0,.17.14-.1-.08-.18-.17-.27-.25a2.5,2.5,0,0,0-1.63-.66,1.6,1.6,0,0,0,0,3.19Z"/><path class="cls-2" d="M144.51,221.78a14.22,14.22,0,0,0,5.91,1.5c2.06,0,2.06-3.15,0-3.19a10.43,10.43,0,0,1-4.3-1.06c-1.84-.89-3.46,1.86-1.61,2.76Z"/><path class="cls-2" d="M349,195.81h5.75a1.6,1.6,0,0,0,0-3.19H349a1.6,1.6,0,0,0,0,3.19Z"/><path class="cls-2" d="M362.93,227.91l3.83-3.83a1.6,1.6,0,0,0-2.26-2.26l-3.83,3.83a1.6,1.6,0,0,0,2.26,2.26Z"/><path class="cls-2" d="M328.91,234.45c0-.1,0-.2,0-.31,0,.5,0,.1,0,0,.11-.41-.12.23,0,0s-.19.2,0,0-.33.23-.09.06-.27.08,0,0a2.08,2.08,0,0,1,.34-.08c-.51.09-.06,0,.07,0a1.6,1.6,0,1,0,0-3.19,3.68,3.68,0,0,0-2.57.95,3.56,3.56,0,0,0-.95,2.57,1.6,1.6,0,1,0,3.19,0Z"/><path class="cls-2" d="M408.63,194.48a39.17,39.17,0,0,1,4.73,1.75c1.84.89,3.46-1.86,1.61-2.76a45.51,45.51,0,0,0-5.49-2.08c-2-.65-2.79,2.43-.85,3.08Z"/><path class="cls-2" d="M426.72,180.43c1.88-.59,3.87-.69,5.75-1.28s1.12-3.69-.85-3.08-3.86.69-5.75,1.28-1.12,3.69.85,3.08Z"/><path class="cls-2" d="M39.14,202a36.39,36.39,0,0,1,5.42,4.22c1.47,1.44,3.73-.81,2.26-2.26a40.83,40.83,0,0,0-6.07-4.72c-1.72-1.15-3.31,1.62-1.61,2.76Z"/><path class="cls-2" d="M25.36,186.08c2-2.64,4.37-5,6.39-7.66,1.25-1.64-1.53-3.23-2.76-1.61-2,2.64-4.37,5-6.39,7.66-1.25,1.64,1.53,3.23,2.76,1.61Z"/><path class="cls-2" d="M39.95,161.33c2.17.06,3.77,1.26,5.26,2.73s3.73-.81,2.26-2.26c-2.11-2.07-4.48-3.58-7.52-3.66-2.06-.05-2.06,3.14,0,3.19Z"/><path class="cls-2" d="M62.3,195.17H68A1.6,1.6,0,0,0,68,192H62.3a1.6,1.6,0,0,0,0,3.19Z"/><path class="cls-2" d="M68.31,181.87c.59-2.53.69-5.13,1.28-7.66.46-2-2.61-2.85-3.08-.85-.59,2.53-.69,5.13-1.28,7.66-.46,2,2.61,2.85,3.08.85Z"/><path class="cls-2" d="M96.78,183a19.63,19.63,0,0,1,6,.58c2,.62,2.81-2.47.85-3.08a22.59,22.59,0,0,0-6.81-.7,1.6,1.6,0,0,0,0,3.19Z"/><path class="cls-2" d="M71.24,217.52H78.9a1.6,1.6,0,0,0,0-3.19H71.24a1.6,1.6,0,0,0,0,3.19Z"/></g></g></svg>