<svg xmlns="http://www.w3.org/2000/svg" viewBox="0 0 588.36 364.09"><defs><style>.cls-1{fill:#89ed29;}.cls-2,.cls-3{fill:#dbff81;}.cls-3{opacity:0.4;}.cls-4{fill:#69cc2f;}</style></defs><title>Ресурс 4</title><g id="Слой_2" data-name="Слой 2"><g id="Layer_1" data-name="Layer 1"><path class="cls-1" d="M568.49,1.36C556.36,9,499.15,50.61,499.15,50.61c-33,15.08-72.21-4-104.67-13.26-24.76-7.09-73-39.5-98.08-19.23C292.82,21,291,29.39,288.15,31.2c-3.41,2.12-12.93,1.17-17.22,1.54C257.73,33.9,249.4,35.52,239.83,45c-10.32,10.24-14.29,10.91-29.25,11.56-18.76.81-19.41,3.91-31.66,16.4-7.32,7.46-6,6.68-17,5.86-9.86-.73-20.27-2.52-30.37-.63-15.23,2.84-38,17.14-42.26,33.17-11.25-1-22.23,1.23-31.35,8.17-12.25,9.32-11.46,19.76-17.7,31.58-5,9.42-18.5,11.55-27,21a42,42,0,0,0-6.67,45.66c3,6.44,6.81,6.6,9.8,11.31,4.76,7.48-18.62,38.41-16.19,46.86C5.95,296,31.1,303.42,51.82,306.14c5,.65,28.4-16.84,31.89-12.72,2.71,3.21.91,15.68,3.36,20.66,11.13,22.6,43.08,29,65.66,30.6,10.71.73,21.86.75,32.36-2,4.77-1.27,15.3-8.39,20.38-7,7.08,1.86,13.18,14.59,21,18.9,27.23,14.92,59.24,13.43,80.91-11.68,6.19-7.17,10.35-19.5,19.28-23.88,8.63-4.23,12.26.72,21,1.18,20.77,1.1,26.22-16,31.9-32.52,16.06,6.93,18.07,11.22,38.83,5.5,23-6.34,32-17.77,40.25-39.18,5.83-15.06,1.48-21.31,17.87-21.06,14.86.23,19.62-1,25.74-16.44,5.37-13.57,4.63-27.53,3.82-41.58-.44-7.56-3.22-21.24,2.24-28.23,2.39-3.06,9.12-2,12.19-5.55,3.5-4.08,3.08-8.94,2.78-14-.7-11.55-4.39-18.86-1.92-30.71,4.28-20.53,21.71-38.17,37.62-52,6.15-5.36,23.81-12.8,24.42-21.84C583.83,16.26,572.3,5.21,568.49,1.36Z"/><path class="cls-2" d="M564.43.08S464.91,81.73,339.61,137.36c-157.44,69.9-243.71,88.79-234.9,93.83s99.95-27.62,205.89-66.28C538,81.95,588.36,24,588.36,24A37.88,37.88,0,0,0,577,6.38C568.21-1.18,564.43.08,564.43.08Z"/><path class="cls-3" d="M123,235l-1.26,1.26c-3.74,3.34-6.38,8.36-10.08,12-4.18,4.08-8.67,7.75-12.74,12-5.91,6.12-20.11,13.76-9.29,22.52,8.68,7,14.35-9.9,18.42-16.19,5.2-8,13.17-16.41,16.67-25.22C125.7,238.78,127.83,233,123,235Z"/><path class="cls-3" d="M213,271.66c0-18.34-3.52-39.17-10.87-55.49-.67.21-.48.7-1.1,1.18.21,27.18-2.14,55.06-8.68,81.24-2.83,11.34-3.56,18.82,7.91,24.07,4.21,1.92,9.16,2.52,12.58,6.29s6.44,13.32,9.63,3.65c2.45-7.41-1.77-20.08-3.81-27.1C215.29,293.76,213,284,213,271.66Z"/><path class="cls-3" d="M178.4,231.83c-5,6.4-5.62,17.17-9,24.57-5.09,11.18-12,21.23-17.62,32.1-4.12,7.93-24.33,38-16.08,46.52,1.19.09.56-.76,1.12-1.18l3.78,3.78c9.85,3.12,24.82-1.33,29.47-11.3,5.17-11.08-2.28-26.08-1.17-38,1.21-13,5.52-26,10.25-38.25,1.89-4.89,5.68-10.45,6.19-15.74C186,227.27,182.38,226.69,178.4,231.83Z"/><path class="cls-3" d="M322,260.38c-7.21-16.79-12.33-33.74-11.33-52.31.68-12.78,5-28,2.42-40.39-1.61.7-1.29,1.56-2.58,3.06-12.3,14.31-7.8,43.19-8.64,61.23-.73,15.44.53,30.83,1.89,46,1.4,15.51,1,30.54,6.3,45.19l2.52-1.26c1-.25,2-2.67,3.61-4.55,4.1-4.88,8-7.07,14-8,5.58-.88,9.6-.09,9.46-7.08-.11-5.74-4.26-12.59-6.82-17.51C328.69,276.78,325.51,268.63,322,260.38Z"/><path class="cls-3" d="M379.9,205.36c-.61-12.3,1.25-25.15,3.18-37.14.79-4.9,8.84-27.57,6.26-29.67C377,149,377,175.9,374.11,190.89s-4.93,30.13-4.9,45.49c0,16,2.26,30.46,4.41,45.83l3.78-1.26c1.38,2,12.39,4.39,14.34,1.12,3.7-6.2-6.41-28.2-7.45-35.12C382.23,233.16,380.6,219.37,379.9,205.36Z"/><path class="cls-3" d="M485.08,106.51c1.32-4.51,2.43-11.63-3.93-7.73-3.26,2-5.6,8.8-6.95,12.11-3.94,9.65-7.75,19.39-10.71,29.14a189.18,189.18,0,0,0-8,45.36c-.57,12.37-2.51,30.12,4.41,40.78h3.78c6.9.19,14.78-2.52,15.11-11.34.39-10.44-3-23-4.37-33.53-1.59-12-3.29-24.75-1.45-37C475,130.84,481.32,119.36,485.08,106.51Z"/><path class="cls-3" d="M85.33,214.82C74,214.3,62,215.68,51,213.07c-6.61-1.58-13.05-4.52-20-3.78-3.72.4-15.43,6.09-10.08,10.57l3.15,1.89c5.82,4.59,15.16,4.62,22.18,5.53,8.43,1.09,17.47,2.9,25.71.77,9.7-2.51,27.83-2.44,35.29-10.08C103.43,213.93,91,215.09,85.33,214.82Z"/><path class="cls-3" d="M198,189c-7.28-6-23-7.27-32.33-10.57-14.07-5-26.35-12.33-39.39-19.05-6.38-3.28-13.48-6.55-18.89-11.3-4.61-4-5.64-8.78-8.8-13.87-5.17-8.33-19.5-18.16-29.61-14.33-3.06,1.16-6.67,4.34-9,6.75-2,2.12-4.79,7.91-5.67,8.2l1.26,1.89C56.16,150,80,162.45,90.07,167c13.36,6,28.34,9.23,42.35,13.36,12.22,3.6,24.15,7.11,36.54,9.29C176,190.87,193.32,197.17,198,189Z"/><path class="cls-3" d="M294.27,143.17c-6.38-1.29-12.84-2.6-19.38-4.08-26.65-6-57.43-14.75-80.26-30.07-11.25-7.55-20.87-19.14-33.24-24.56-11.38-5-29.92-5.56-40.3.63V87c1.09,13.2,22.68,24.16,32.9,28.83,14.21,6.48,29.82,11.35,44.54,16.51,22.42,7.87,46,13.8,69.29,16.39,7.87.87,24.38,4.59,31.5.77C307,145.4,299.24,144.18,294.27,143.17Z"/><path class="cls-3" d="M281,115.48A204.54,204.54,0,0,1,232.55,80.7c-5.81-5.51-21.12-21.93-29.6-17.65l-4.41-1.26c-4,1.39-6.5,7.84-5.68,12C194,79.34,199.47,81.6,204.22,84c11.41,5.77,22.72,11.1,33.38,18.26,19.51,13.12,43,28.83,66.75,31.36,6.8.72,31,4.9,35.34-.68-7.27-5.28-21.32-4.87-30.17-7A124.36,124.36,0,0,1,281,115.48Z"/><path class="cls-3" d="M413.44,85.86a161.72,161.72,0,0,1-20.78,0C377,84.61,359,81.24,344.18,75.8c-11.77-4.32-28-10.33-36.05-20.32-6.51-8.07-13.6-16-23.93-19.51-5.49-1.88-15.83-.12-20.78,1.89l-2.52,2.52c-18,20.49,73.75,45.72,85,49.77,14.09,5.06,28.1,5.79,42.81,4.38,5.74-.55,11.37-1.14,17-1.89,4-.54,11.72.83,15.13-1.72C427.73,85.79,417.62,85.66,413.44,85.86Z"/><path class="cls-4" d="M108.65,269.92A76,76,0,0,1,98.77,286c-4.1,5.32-9.43,9.23-10.45,16.33-.83,5.8,1.25,15,7.57,16.47v2.75c3.7,2.44,9.58,9.48,12.11,1.65,1.92-5.94.31-15.16,1.08-21.42,1.08-8.67,1.85-17.49,4.51-25.8,2.14-6.69,6-12.45,5.24-19.73C113,258.61,111,264.62,108.65,269.92Z"/><path class="cls-4" d="M238.25,283.79c-6.51-12.22-7.39-25.19-10.55-38.19-1.21-5-2.21-9.81-3.43-14.68-.84-3.34-1-9.16-2.63-12.08a17.61,17.61,0,0,1-.64-2.65c-1.52-.17-1.94.53-2.65,1.55v-1.65c-1.86,13,2,26.16,3.29,39.11,1.68,16.71,3.29,33.58,6.45,50,2,10.17,4.41,20.22,8.24,29.63,4.15,10.21,7.83,15.31,18.8,16.91,5.46.8,14.13,3.38,19.13.44,3.42-10.35-6.77-19.33-12.51-27.21C252.83,312.71,245.43,297.27,238.25,283.79Z"/><path class="cls-4" d="M330.91,190.83c.18-3.78,6.29-29.15-1.63-25.26l-1.65-.55c-5.79,20.51-13.45,43.67-8.8,65.47,1.12,5.27,9.05,34.92,17.61,29.56,6.79-4.26-1-23.39-2.22-28.72A151.32,151.32,0,0,1,330.91,190.83Z"/><path class="cls-4" d="M97.94,239c1.29-3.23-1.6-6-4.8-4.8l-2.2-1.1c-10.91,3.1-22.49,6.37-34,7.14-4.87.32-9.84.9-14.71.43-4.18-.41-8.78-2.19-13.3-1.53-9.59,1.4-11.56,11.58-15.51,19.1-3,5.76-12.17,21.67,2.76,18.68,7.77-1.55,15.58-11.25,22.2-15.28a109.66,109.66,0,0,1,30.78-13.18c7.23-1.74,14.81-2.63,21.83-5.07C93,242.7,97,241.37,97.94,239Z"/><path class="cls-4" d="M191.46,234.16c-6.54-1.7-8.1,20.45-8.69,23.67-1.86,10.17-7.66,19.7-9.49,29.65-1.64,9,.28,17.75,1.12,26.36.33,3.37,1.65,26.61,8.25,19.77l4.39-.55c13.26,1.54,1.59-11.46-1.23-16.47-4.19-7.42-5.07-17.54-3.59-25.93C183.33,284.39,199.39,236.23,191.46,234.16Z"/><path class="cls-4" d="M517.5,85.95c1.42-2.92,7.6-11.47,7.26-12.08l-5.49,2.75c-6.91,2.2-13.92,16.52-16.62,22.94-3.61,8.56-6,19.31-3.68,28.69,2.21,9,19.17,13.24,14.4,3.13-2.37-5-5.38-5.45-5.63-11.93a47.92,47.92,0,0,1,1.51-13.73C511,98.64,514.35,92.45,517.5,85.95Z"/><path class="cls-4" d="M280,181.57c-.2.25-.39.53-.58.82l.42.21C279.82,182,281,181.78,280,181.57Z"/><path class="cls-4" d="M278.23,277.6c-1.91-10.09-6.15-20.52-7-30.74a145,145,0,0,1,1.65-37.35c1.21-7,2.47-20.84,6.6-27.12l-1.78-.89c-7.08,9.53-10.22,21.71-11.52,33.53-1.95,17.71-3.4,35.19-2.76,53.25.54,15.36,4.71,31.82,10,46.27,3.13,8.5,6.37,26,16.89,27.85,24.26,4.25,3.54-32.26-1.25-39.93C283.88,294.21,280,287.14,278.23,277.6Z"/><path class="cls-4" d="M415.26,268.22c-6.44-10.37-5.37-25.75-4.72-38.12.3-5.7,3-15.31,0-20.59-4.47-7.84-5.81,4.28-6.5,9.06-2,13.49-6.1,25.85-6.63,39.54-.24,6.21,4.42,34.1,15.65,26.36h3.29c4.65,1.51,7.1-3.47,5.76-8.28C421.32,273.49,416.78,270.67,415.26,268.22Z"/><path class="cls-4" d="M463.94,109.94c-3.23.73-5.26,3.65-7.27,6.49-15.44,21.83-9.72,54.5-13,79.89-2.12,16.43-6.19,32.87-6.77,49.43-.16,4.38-1.06,17.84,5.81,16.51,4.6-.89,7.46-14.15,7.37-16.51l4.12-6.59c-4.31-2.89-2.08-22.11-2.45-29.65-.55-11-.84-22.47-.84-33.77,0-11.62-.21-24.37,2.66-35.42C456,130.79,465.32,119.64,463.94,109.94Z"/></g></g></svg>